<?xml version="1.0" encoding="UTF-8" standalone="no"?><!DOCTYPE svg PUBLIC "-//W3C//DTD SVG 1.1//EN" "http://www.w3.org/Graphics/SVG/1.1/DTD/svg11.dtd"><svg width="100%" height="100%" viewBox="0 0 24 24" version="1.1" xmlns="http://www.w3.org/2000/svg" xmlns:xlink="http://www.w3.org/1999/xlink" xml:space="preserve" xmlns:serif="http://www.serif.com/" style="fill-rule:evenodd;clip-rule:evenodd;stroke-linejoin:round;stroke-miterlimit:2;"><g><path d="M23.86,11.546c-0.405,-0.582 -0.762,-1.243 -1.047,-1.967c-0.455,-1.149 -0.667,-2.305 -0.665,-3.356c0.001,-0.397 -0.478,-0.61 -0.773,-0.344c-1.322,1.191 -3.55,2.116 -6.242,2.564c0.26,-1.278 0.251,-2.767 -0.481,-4.187c-0.131,-0.254 -0.486,-0.284 -0.654,-0.052c-0.214,0.294 -0.438,0.73 -0.438,1.265l-3.121,0c-0,-0.535 -0.224,-0.971 -0.437,-1.265c-0.168,-0.232 -0.523,-0.203 -0.655,0.052c-0.732,1.42 -0.74,2.907 -0.48,4.184c-2.692,-0.448 -4.92,-1.372 -6.242,-2.562c-0.295,-0.266 -0.773,-0.052 -0.773,0.345c0.003,1.051 -0.21,2.207 -0.665,3.356c-0.285,0.724 -0.642,1.385 -1.047,1.966c-0.306,0.438 -0.088,1.053 0.422,1.214c0.466,0.147 0.943,0.355 1.411,0.623c1.618,0.927 2.577,2.326 2.772,3.495c0.054,0.322 0.166,0.446 0.61,0.375c1.102,-0.178 2.598,-0.058 4.037,0.766c0.792,0.455 1.447,1.02 1.92,1.615c0.155,0.194 0.358,0.321 0.688,0.321c0.324,-0 0.529,-0.128 0.683,-0.321c0.474,-0.596 1.131,-1.16 1.924,-1.614c1.439,-0.825 2.935,-0.945 4.038,-0.767c0.444,0.072 0.555,-0.053 0.61,-0.376c0.195,-1.168 1.154,-2.567 2.772,-3.494c0.469,-0.269 0.947,-0.476 1.412,-0.623c0.509,-0.16 0.726,-0.775 0.421,-1.213Z" style="fill:#fff;fill-rule:nonzero;"/></g></svg>