<?xml version="1.0" encoding="UTF-8" standalone="no"?><!DOCTYPE svg PUBLIC "-//W3C//DTD SVG 1.1//EN" "http://www.w3.org/Graphics/SVG/1.1/DTD/svg11.dtd"><svg width="100%" height="100%" viewBox="0 0 25 25" version="1.1" xmlns="http://www.w3.org/2000/svg" xmlns:xlink="http://www.w3.org/1999/xlink" xml:space="preserve" xmlns:serif="http://www.serif.com/" style="fill-rule:evenodd;clip-rule:evenodd;stroke-linejoin:round;stroke-miterlimit:2;"><path d="M0.5,4.5c-0.276,0 -0.5,0.224 -0.5,0.5l0,7.058c0,3.08 2.341,5.758 5.417,5.932c2.948,0.167 5.457,-1.902 5.981,-4.665c0.285,0.385 0.575,0.743 0.868,1.071l-1.765,7.49c-0.035,0.149 0,0.304 0.095,0.425c0.095,0.119 0.239,0.189 0.392,0.189l2.56,-0c0.232,-0 0.432,-0.156 0.485,-0.382c0.311,-1.31 0.797,-3.364 1.238,-5.225l0.456,0.263c1.082,0.561 2.181,0.844 3.273,0.844c3.596,-0 6.463,-3.18 5.938,-6.875c-0.348,-2.448 -2.231,-4.466 -4.648,-4.986c-2.814,-0.607 -5.527,0.836 -6.693,3.233c-0,0 -0.13,0.287 -0.234,0.574c-0.825,-1.423 -1.309,-2.899 -1.563,-3.968c-0.093,-0.39 -0.231,-1.097 -0.247,-1.142c-0.07,-0.202 -0.258,-0.336 -0.472,-0.336l-2.581,-0c-0.276,-0 -0.5,0.224 -0.5,0.5l0,7.15c0,1.175 -0.856,2.225 -2.025,2.339c-1.341,0.131 -2.475,-0.924 -2.475,-2.239l0,-7.25c0,-0.276 -0.224,-0.5 -0.5,-0.5l-2.5,-0Zm18.5,5c1.379,-0 2.5,1.121 2.5,2.5c0,1.378 -1.121,2.5 -2.5,2.5c-1.112,-0 -2.143,-0.671 -2.865,-1.256c0.263,-1.112 0.44,-1.857 0.443,-1.87c0.284,-1.103 1.281,-1.874 2.422,-1.874Z" style="fill-rule:nonzero;"/></svg>